<?xml version="1.0" encoding="UTF-8"?>
<svg width="1041px" height="825px" viewBox="0 0 1041 825" version="1.1" xmlns="http://www.w3.org/2000/svg" xmlns:xlink="http://www.w3.org/1999/xlink">
    <title>@3xemptyDrive</title>
    <defs>
        <linearGradient x1="50.0293705%" y1="99.988739%" x2="50.0293705%" y2="-0.000174493934%" id="linearGradient-1">
            <stop stop-color="#808080" stop-opacity="0.25" offset="0%"></stop>
            <stop stop-color="#808080" stop-opacity="0.12" offset="54%"></stop>
            <stop stop-color="#808080" stop-opacity="0.1" offset="100%"></stop>
        </linearGradient>
        <linearGradient x1="50%" y1="100%" x2="50%" y2="0%" id="linearGradient-2">
            <stop stop-color="#808080" stop-opacity="0.25" offset="0%"></stop>
            <stop stop-color="#808080" stop-opacity="0.12" offset="54%"></stop>
            <stop stop-color="#808080" stop-opacity="0.1" offset="100%"></stop>
        </linearGradient>
        <linearGradient x1="4.32548939e-14%" y1="50%" x2="100%" y2="50%" id="linearGradient-3">
            <stop stop-color="#808080" stop-opacity="0.25" offset="0%"></stop>
            <stop stop-color="#808080" stop-opacity="0.12" offset="54%"></stop>
            <stop stop-color="#808080" stop-opacity="0.1" offset="100%"></stop>
        </linearGradient>
        <linearGradient x1="0.00381898033%" y1="50%" x2="100.003819%" y2="50%" id="linearGradient-4">
            <stop stop-color="#808080" stop-opacity="0.25" offset="0%"></stop>
            <stop stop-color="#808080" stop-opacity="0.12" offset="54%"></stop>
            <stop stop-color="#808080" stop-opacity="0.1" offset="100%"></stop>
        </linearGradient>
        <linearGradient x1="4.34167797e-14%" y1="49.987556%" x2="100%" y2="49.987556%" id="linearGradient-5">
            <stop stop-color="#808080" stop-opacity="0.25" offset="0%"></stop>
            <stop stop-color="#808080" stop-opacity="0.12" offset="54%"></stop>
            <stop stop-color="#808080" stop-opacity="0.1" offset="100%"></stop>
        </linearGradient>
        <linearGradient x1="50%" y1="100%" x2="50%" y2="0%" id="linearGradient-6">
            <stop stop-color="#808080" stop-opacity="0.25" offset="0%"></stop>
            <stop stop-color="#808080" stop-opacity="0.12" offset="54%"></stop>
            <stop stop-color="#808080" stop-opacity="0.1" offset="100%"></stop>
        </linearGradient>
        <linearGradient x1="0%" y1="50.0032742%" x2="100%" y2="50.0032742%" id="linearGradient-7">
            <stop stop-color="#808080" stop-opacity="0.25" offset="0%"></stop>
            <stop stop-color="#808080" stop-opacity="0.12" offset="54%"></stop>
            <stop stop-color="#808080" stop-opacity="0.1" offset="100%"></stop>
        </linearGradient>
        <linearGradient x1="49.9820152%" y1="99.9961634%" x2="49.9820152%" y2="0.0118747299%" id="linearGradient-8">
            <stop stop-color="#808080" stop-opacity="0.25" offset="0%"></stop>
            <stop stop-color="#808080" stop-opacity="0.12" offset="54%"></stop>
            <stop stop-color="#808080" stop-opacity="0.1" offset="100%"></stop>
        </linearGradient>
    </defs>
    <g id="Page-1" stroke="none" stroke-width="1" fill="none" fill-rule="evenodd">
        <g id="emptyDrive">
            <path d="M389.34,56.33 C352.17,41.22 312.89,28.57 272.79,30.18 C213.79,32.5 157.28,67.96 129.52,120.03 C106,164.14 103.1,215.85 92.97,264.8 C80.49,325.12 56.59,382.44 31.05,438.5 C17.33,468.57 2.86,499.37 0.61,532.38 C-2.52,578.2 19.39,623.87 53.74,654.38 C88.09,684.89 133.74,700.94 179.51,704.45 C203.88,706.32 229.34,704.59 250.99,693.25 C273.89,681.25 290.58,659.56 313.57,647.74 C334.88,636.74 359.8,635.24 383.72,636.67 C415.050723,638.544713 445.92359,645.104229 475.31,656.13 C508.74,668.69 539.83,686.87 573.19,699.6 C606.55,712.33 643.82,719.44 677.92,708.81 C709.92,698.81 735.26,674.61 758.09,650.06 C795.561854,609.764323 829.738299,566.525435 860.29,520.76 C880.88,489.92 900.04,457.38 909.15,421.43 C926.55,352.71 902.6,275.17 849.46,228.23 C805.46,189.35 746.37,172.47 688.54,162.23 C635.81,152.89 574.84,152.31 526.3,127.97 C480,104.72 437.88,76.07 389.34,56.33 Z" id="Path" fill="#7774A0" fill-rule="nonzero" opacity="0.1"></path>
            <path d="M779.19,120.27 C764.91,120.84 764.19,157.71 765.08,159.32 C765.97,160.93 761.84,177.57 761.84,177.57 C761.84,177.57 755.36,202.8 756.11,207.49 C756.86,212.18 752.62,215.25 752.62,215.25 C746.28,217.75 738.33,225.81 736.22,228.02 L735.69,228.59 C735.69,228.59 729.55,232.59 728.47,234.17 C727.39,235.75 724.47,234.49 724.47,234.49 C724.47,234.49 716.17,233.69 715.09,234.01 C714.35,234.23 713.19,232.87 712.53,232.01 C712.22,231.6 712.02,231.29 712.02,231.29 L711.77,223.85 C711.457459,223.611542 711.122563,223.403906 710.77,223.23 C710.94,222.39 711.15,221.52 711.41,220.63 C715.141029,218.809955 718.289369,215.983723 720.5,212.47 C720.74,212.09 720.96,211.7 721.17,211.31 C721.722744,211.693605 722.388392,211.880268 723.06,211.84 C723.355461,211.848107 723.650844,211.821254 723.94,211.76 C724.872067,211.50827 725.743101,211.06935 726.5,210.47 C728.564317,209.077181 730.20996,207.148044 731.26,204.89 C731.444216,204.458989 731.594669,204.014318 731.71,203.56 C731.56,203.81 731.4,204.06 731.24,204.3 C732.033161,202.164927 731.83906,199.788096 730.71,197.81 C729.93,196.55 728.71,195.53 728.21,194.13 C727.37,191.72 728.96,189.23 729.94,186.87 C730.887893,184.722924 731.196891,182.348151 730.83,180.03 C730.433771,177.683099 729.09754,175.599301 727.13,174.26 C723.2,171.71 717.87,173.11 713.32,171.88 C711.694887,171.352607 710.107835,170.714445 708.57,169.97 C706.233359,168.961824 703.796402,168.204256 701.3,167.71 C698.83,167.22 695.84,167.17 694.3,169.1 C693.870361,169.712691 693.489204,170.357985 693.16,171.03 C692.157943,172.65352 690.548593,173.809227 688.69,174.24 C687.782886,174.412252 686.86309,174.509248 685.94,174.53 C686.022385,174.154465 686.022385,173.765535 685.94,173.39 C684.78,169.59 688.1,166.77 692.42,165.07 C696.74,163.37 713.17,150.43 715.08,147.36 C716.99,144.29 730.36,134.66 730.36,134.66 C730.36,134.66 750.36,129 756.92,108.38 C763.48,87.76 725.54,122.78 721.72,123.83 C717.9,124.88 712.43,128.83 712.43,128.83 L688.1,142.9 C683.461875,145.517332 679.070571,148.549742 674.98,151.96 C669.09,157.05 665.36,165.7 665.36,165.7 C665.36,165.7 663.03,169.5 659.63,175 C657.754708,178.134404 655.223472,180.825975 652.21,182.89 L652.32,182.69 C652.05,183.02 643.68,193.59 642.94,198.21 C642.2,202.83 638.79,221.66 638.79,221.66 C638.79,221.66 635.79,236.45 633.73,239.36 C633.73,239.36 632.06,247.85 631.07,248.99 C630.08,250.13 626.07,262.16 626.75,263.38 C626.75,263.38 622.93,271.71 623.6,274.86 L616.71,291.36 C616.71,291.36 612.97,299.52 613.22,304.29 C613.34,306.6 613.44,309.29 613.51,311.49 C613.51,311.84 613.51,312.17 613.51,312.49 L613.51,312.49 C613.51,312.84 613.51,313.18 613.51,313.49 C613.14,314.11 612.19,315.69 611.2,317.6 C609.78,320.38 608.27,323.85 608.36,325.99 C608.52,329.75 608.53,338.93 606.8,342.3 L606.29,342.1 C605.68352,343.105293 605.339637,344.246983 605.29,345.42 L605.41,345.48 C605.41,345.77 605.32,346.07 605.29,346.39 C604.87,350.22 605.48,355.55 604.52,356.72 C603.19,358.34 603.85,394.24 603.85,394.24 C603.85,394.24 601.69,416.71 606.01,430.95 L605.68,442.1 C605.68,442.1 605.51,452.61 606.01,454.1 C606.51,455.59 606.68,466.23 606.68,466.23 L609.17,484.02 C609.17,484.02 605.84,511.51 608.67,518.3 C610.309565,522.045964 611.323042,526.035685 611.67,530.11 C613.110582,530.902293 614.651006,531.497609 616.25,531.88 L616.25,532.88 L615.6,549.6 L615.6,550.52 C615.6,550.52 615.52,550.96 615.46,551.69 L615.46,551.69 C615.46,551.82 615.46,551.96 615.46,552.1 C615.455084,552.139849 615.455084,552.180151 615.46,552.22 C615.46,552.33 615.46,552.45 615.46,552.57 C615.455017,552.659931 615.455017,552.750069 615.46,552.84 C615.464979,552.919923 615.464979,553.000077 615.46,553.08 L615.46,553.28 C615.46,553.69 615.46,554.13 615.46,554.59 L615.46,554.59 C615.46,554.77 615.46,554.96 615.46,555.15 C615.46,555.34 615.46,555.26 615.46,555.31 L615.46,555.56 C615.46,555.67 615.46,555.78 615.46,555.89 L615.46,556.05 C615.46,556.22 615.51,556.38 615.54,556.55 C615.535183,556.589855 615.535183,556.630145 615.54,556.67 C615.54,556.86 615.61,557.04 615.65,557.22 L615.65,557.22 C615.65,557.4 615.73,557.58 615.78,557.76 C615.784679,557.779726 615.784679,557.800274 615.78,557.82 L615.78,557.82 C615.78,557.91 615.83,558.01 615.86,558.1 C615.854343,558.143149 615.854343,558.186851 615.86,558.23 C615.86,558.34 615.93,558.45 615.96,558.57 L615.96,558.65 C616.06,558.93 616.16,559.21 616.28,559.49 C616.276235,559.519882 616.276235,559.550118 616.28,559.58 C616.28,559.68 616.37,559.79 616.42,559.89 L616.48,560.03 L616.61,560.3 L616.69,560.45 L616.83,560.7 L616.92,560.85 C616.92,560.93 617.01,561.01 617.06,561.09 C617.11,561.17 617.13,561.19 617.16,561.25 L617.31,561.48 L617.42,561.63 L617.58,561.86 L617.7,562.01 L617.88,562.23 L618,562.37 L618.21,562.61 L618.32,562.73 L618.66,563.06 C618.691688,563.09843 618.728733,563.132107 618.77,563.16 C618.848478,563.241782 618.931973,563.318597 619.02,563.39 L619.18,563.52 L619.4,563.7 L619.59,563.84 L619.81,564 L620.02,564.14 L620.24,564.28 L620.47,564.41 L620.7,564.55 L620.94,564.67 L621.19,564.79 L621.44,564.91 L621.69,565.02 L621.96,565.13 L622.23,565.23 L622.51,565.33 L622.81,565.42 L623.28,565.56 L623.67,565.66 L623.98,565.72 L624.3,565.79 L624.64,565.79 L624.97,565.84 L625.32,565.84 L625.67,565.84 L626.03,565.84 L626.4,565.84 L626.77,565.84 L628.35,565.84 L628.81,565.84 L629.19,565.84 L629.73,565.79 L630.06,565.79 L630.97,565.69 C630.97,565.69 642.3,567.38 642.67,562.9 C642.67,562.67 642.67,562.43 642.72,562.18 L642.72,561.61 C642.715028,561.540088 642.715028,561.469912 642.72,561.4 C642.72,561.18 642.72,560.94 642.72,560.7 L642.72,560.59 C642.72,560.34 642.72,560.09 642.72,559.83 L642.72,559.29 C642.72,558.85 642.72,558.4 642.72,557.95 C642.72,557.78 642.72,557.62 642.72,557.45 C642.72,556.99 642.72,556.54 642.72,556.09 L642.72,556.02 C642.72,555.91 642.72,555.82 642.72,555.71 C642.65,553.49 642.54,551.43 642.47,550.28 C642.47,549.67 642.41,549.28 642.41,549.28 C642.41,549.28 638.55,543.46 639.18,541.28 C639.81,539.1 639.67,531.7 639.67,531.7 C639.67,531.7 638.17,528.15 637.16,525.01 C637.08,524.77 637.01,524.53 636.94,524.3 C637.777868,523.341361 638.565587,522.340023 639.3,521.3 C640.734914,513.591078 639.749885,505.627013 636.48,498.5 C636.096816,498.233884 635.868792,497.796526 635.87,497.33 C635.865084,497.290151 635.865084,497.249849 635.87,497.21 L637.8,473.6 L636.63,459.86 C636.63,459.86 635.8,450.47 637.63,446.43 L641.28,410.86 L646.46,390.17 C646.46,390.17 648.12,389.36 649.46,393.25 C650.8,397.14 654.1,414.75 654.1,414.75 L662.1,443.86 C662.1,443.86 663.43,454.21 664.59,455.67 C665.75,457.13 665.76,463.59 665.76,463.59 C665.76,463.59 668.25,468.77 667.92,471.03 C667.59,473.29 667.92,479.44 668.74,481.54 C669.56,483.64 669.91,498.54 669.91,498.54 C668.954437,503.412815 669.067025,508.434903 670.24,513.26 C672.24,520.7 671.07,530.08 671.07,530.08 C671.280679,530.404594 671.507635,530.718328 671.75,531.02 C671.67,531.24 671.58,531.46 671.5,531.66 C670.98,533.01 670.57,533.96 670.57,533.96 C670.57,533.96 670.45,541.36 671.07,543.54 C671.69,545.72 667.83,551.54 667.83,551.54 C667.83,551.54 667.83,551.9 667.77,552.54 C667.7,553.69 667.59,555.74 667.52,557.97 C667.52,558.07 667.52,558.17 667.52,558.28 L667.52,558.36 L667.52,559.7 C667.52,559.87 667.52,560.04 667.52,560.21 C667.52,560.66 667.52,561.11 667.52,561.55 C667.52,561.63 667.52,561.72 667.52,561.8 C667.52,561.88 667.52,561.93 667.52,561.99 L667.52,562.08 C667.52,562.34 667.52,562.6 667.52,562.85 L667.52,562.96 C667.52,563.2 667.52,563.44 667.52,563.67 C667.515293,563.733246 667.515293,563.796754 667.52,563.86 C667.52,564.05 667.52,564.25 667.52,564.44 C667.52,564.63 667.52,564.93 667.57,565.16 C667.95,569.64 679.28,567.95 679.28,567.95 L680.19,568.06 L680.51,568.06 L681.06,568.06 L681.43,568.06 L681.9,568.06 L683.46,568.06 L683.83,568.06 L684.2,568.06 L684.56,568.06 L684.91,568.06 L685.25,568.06 L685.59,568 L685.92,567.95 L686.24,567.88 L686.56,567.82 L686.95,567.72 L687.42,567.58 L687.71,567.49 L687.99,567.39 C688.082133,567.362737 688.172336,567.329329 688.26,567.29 L688.53,567.18 L688.79,567.07 L689.04,566.96 L689.29,566.83 L689.52,566.71 L689.76,566.58 L689.98,566.44 L690.21,566.3 L690.41,566.16 L690.63,566 C690.697357,565.959056 690.76094,565.912205 690.82,565.86 C690.897516,565.808963 690.971059,565.752134 691.04,565.69 L691.21,565.55 L691.46,565.33 L691.57,565.22 L691.91,564.89 L692.01,564.77 L692.23,564.54 L692.34,564.39 C692.408586,564.321372 692.472087,564.247845 692.53,564.17 L692.64,564.02 L692.81,563.79 L692.91,563.64 L693.07,563.41 C693.099697,563.354479 693.133107,563.301024 693.17,563.25 C693.17,563.17 693.26,563.09 693.31,563.01 L693.4,562.86 C693.4,562.77 693.49,562.69 693.53,562.61 C693.560531,562.562159 693.587279,562.512006 693.61,562.46 C693.61,562.37 693.7,562.28 693.74,562.19 L693.81,562.05 C693.81,561.95 693.9,561.85 693.95,561.74 L693.95,561.65 C694.06,561.37 694.17,561.09 694.26,560.81 L694.26,560.73 C694.26,560.62 694.33,560.51 694.37,560.4 C694.365576,560.353438 694.365576,560.306562 694.37,560.26 C694.37,560.17 694.37,560.07 694.45,559.98 L694.45,559.93 C694.454679,559.910274 694.454679,559.889726 694.45,559.87 C694.45,559.69 694.55,559.51 694.59,559.34 L694.59,559.34 C694.59,559.16 694.67,558.98 694.7,558.8 L694.7,558.67 C694.7,558.5 694.76,558.34 694.78,558.18 C694.8,558.02 694.78,558.07 694.78,558.01 C694.78,557.95 694.78,557.79 694.78,557.68 C694.78,557.57 694.78,557.51 694.78,557.43 C694.78,557.35 694.78,557.33 694.78,557.27 C694.78,557.21 694.78,556.9 694.78,556.71 L694.78,556.71 C694.78,556.25 694.78,555.81 694.78,555.4 L694.78,554.96 C694.775017,554.870069 694.775017,554.779931 694.78,554.69 C694.78,554.57 694.78,554.46 694.78,554.34 C694.775084,554.300151 694.775084,554.259849 694.78,554.22 C694.78,554.08 694.78,553.94 694.78,553.82 L694.78,553.82 C694.72,553.09 694.65,552.65 694.65,552.65 L694.65,551.74 L694.02,535.56 L694.02,534.56 C694.95,534.04 695.9,533.45 696.89,532.76 C696.89,532.76 696.72,523.54 699.38,519.83 C702.04,516.12 698.05,506.4 698.05,506.4 L696.39,471.63 L697.05,455.63 C695.732154,453.256346 695.043647,450.584942 695.05,447.87 C694.787043,444.401246 693.88523,441.010969 692.39,437.87 C692.39,437.87 690.73,432.37 692.73,430.75 C694.73,429.13 690.57,393.75 690.57,393.75 C690.57,393.75 691.57,367.9 689.67,352.55 L689.67,352.3 L690.2,352.06 C690.04,350.83 689.87,349.68 689.68,348.61 L689.12,348.78 C688.885068,347.423978 688.550835,346.087046 688.12,344.78 L685.46,332.57 C685.46,332.57 685.4,331.93 685.33,331 C685.24,329.9 685.14,328.41 685.12,327.1 C685.111483,326.547971 685.171951,325.99704 685.3,325.46 L685.16,325.34 C685.172762,325.052114 685.21976,324.766772 685.3,324.49 L684.72,324 C684.72,324 684.64,323.45 684.58,322.61 C684.45,320.75 684.38,317.51 685.3,315.68 C686.63,313.01 700.3,302.9 700.3,302.9 L707.96,287.57 C707.96,287.57 715.6,276.81 721.41,274.71 C727.22,272.61 745.32,260.57 745.32,260.57 C745.32,260.57 751.63,254.1 752.13,252.57 L752.34,252.25 L752.46,252.25 L752.46,252.04 L769.46,226.57 C776.26,221.07 776.51,209.35 776.51,209.35 L778.28,182.57 L777.7,166.73 L778.52,157.73 C778.52,157.73 793.46,119.71 779.19,120.27 Z M681.81,189.57 C679.963001,192.804755 678.991051,196.465078 678.99,200.19 C678.99,200.37 678.99,200.55 678.99,200.73 C678.99,200.91 678.99,201.02 678.99,201.16 C678.990367,204.486528 679.767679,207.766993 681.26,210.74 C680.504817,211.586019 679.941904,212.585616 679.61,213.67 C678.77,212.61 676.31,209.37 676.17,207.22 C676,204.64 673.51,202.86 673.51,202.86 C673.51,202.86 673.05,197.96 673.67,197.12 L673.76,197.04 C673.76,197.04 673.83,196.92 673.97,196.72 L673.97,196.72 C674.68,195.65 677.07,192.04 679.54,187.93 C679.950647,188.105788 680.375514,188.246295 680.81,188.35 L682.33,188.73 L681.81,189.57 Z" id="Shape" fill="url(#linearGradient-1)" fill-rule="nonzero"></path>
            <path d="M730.25,186.87 C730.4,186.53 730.52,186.17 730.64,185.81 C730.258073,186.605979 729.924142,187.424109 729.64,188.26 C729.85,187.79 730.06,187.33 730.25,186.87 Z" id="Path" fill="url(#linearGradient-2)" fill-rule="nonzero"></path>
            <path d="M686.25,210.65 C686.25,210.65 683.12,225.57 677.35,227.5 C671.58,229.43 684.35,246.5 684.35,246.5 L710.82,245.05 L711.3,239.52 C711.3,239.52 706.3,228.45 714.67,214.98 C723.04,201.51 686.25,210.65 686.25,210.65 Z" id="Path" fill="#F6BAC2" fill-rule="nonzero"></path>
            <path d="M644.74,562.92 C644.38,567.37 633.43,565.69 633.43,565.69 C615.27,568.21 618.27,550.41 618.27,550.41 L618.27,549.5 L618.9,532.9 L619.08,528.27 C619.08,528.27 639.08,519.13 638.57,521.05 C638.38,521.77 638.8,523.5 639.38,525.37 C640.38,528.48 641.81,532 641.81,532 C641.81,532 641.93,539.34 641.33,541.5 C640.73,543.66 644.46,549.44 644.46,549.44 C644.46,549.44 644.46,549.8 644.52,550.44 C644.81595,554.593095 644.889388,558.759054 644.74,562.92 L644.74,562.92 Z" id="Path" fill="#B77983" fill-rule="nonzero"></path>
            <path d="M679.75,567.73 C679.75,567.73 668.8,569.42 668.44,564.96 C668.27372,560.789673 668.33715,556.613354 668.63,552.45 C668.63,551.85 668.68,551.45 668.68,551.45 C668.68,551.45 672.41,545.67 671.81,543.51 C671.21,541.35 671.33,534 671.33,534 C671.33,534 671.72,533.07 672.23,531.73 C673.3,528.92 674.91,524.36 674.58,523.06 C674.1,521.13 694.07,530.27 694.07,530.27 L694.27,535.45 L694.88,551.5 L694.88,552.41 C694.88,552.41 697.92,570.26 679.75,567.73 Z" id="Path" fill="#B77983" fill-rule="nonzero"></path>
            <path d="M754.82,111.92 C748.46,132.37 729.16,137.99 729.16,137.99 C729.16,137.99 716.24,147.57 714.4,150.57 C712.56,153.57 696.68,166.45 692.5,168.14 C688.32,169.83 685.13,172.63 686.25,176.39 C687.25,179.88 676.31,196.96 674.66,199.5 L674.66,199.5 L674.46,199.82 L671.01,203.43 L659.3,209.36 L649.76,206.31 L648.55,194.85 L653.61,185.85 L653.61,185.85 L653.61,185.85 C656.536568,183.787462 658.982473,181.116411 660.78,178.02 C664.07,172.56 666.32,168.8 666.32,168.8 C666.32,168.8 669.93,160.22 675.62,155.16 C679.556672,151.775596 683.798089,148.76275 688.29,146.16 L711.8,132.16 C711.8,132.16 717.09,128.23 720.8,127.16 C724.51,126.09 761.16,91.47 754.82,111.92 Z" id="Path" fill="#F6BAC2" fill-rule="nonzero"></path>
            <path d="M659.3,201.99 L674.94,198.86 C674.770552,199.03529 674.670977,199.266445 674.66,199.51 L674.66,199.51 L674.46,199.83 L671.01,203.44 L659.3,209.37 L649.76,206.32 L648.55,194.86 L653.61,185.86 L653.61,185.86 C648.82,195.86 653.49,202.96 653.49,202.96 L659.3,201.99 Z" id="Path" fill="#000000" fill-rule="nonzero" opacity="0.05"></path>
            <path d="M750.76,253.65 C750.717179,253.754451 750.68045,253.861297 750.65,253.97 C750.501592,254.327443 750.306569,254.663691 750.07,254.97 L743.76,258.05 L734.13,259.05 L729.13,246.94 L732.46,233.67 L734.3,231.19 L734.81,230.63 C735,233.03 735.97,245.55 735.91,249.31 C735.83,253.48 738.91,253.81 738.91,253.81 L750.76,253.65 Z" id="Path" fill="#000000" fill-rule="nonzero" opacity="0.05"></path>
            <path d="M750.28,254.57 C750.237179,254.674451 750.20045,254.781297 750.17,254.89 C749.69,256.41 743.6,262.83 743.6,262.83 C743.6,262.83 726.11,274.78 720.5,276.83 C714.89,278.88 707.5,289.58 707.5,289.58 L700.12,304.81 C700.12,304.81 686.89,314.81 685.61,317.49 C684.72,319.31 684.79,322.49 684.92,324.37 C684.92,325.2 685.04,325.75 685.04,325.75 L681.14,329.82 L678.03,333.06 L673.65,337.62 L666.52,336.62 L644.3,333.09 L640.04,330.69 L616.39,317.37 C616.39,317.37 616.39,316.54 616.33,315.27 C616.33,314.71 616.33,314.07 616.27,313.36 C616.2,311.2 616.1,308.51 615.99,306.22 C615.75,301.49 619.36,293.39 619.36,293.39 L626.01,277.02 C625.37,273.9 629.06,265.63 629.06,265.63 C628.42,264.43 632.27,252.48 633.23,251.36 C634.19,250.24 635.8,241.81 635.8,241.81 C637.8,238.93 640.69,224.25 640.69,224.25 C640.69,224.25 643.98,205.64 644.69,200.99 C645.4,196.34 653.49,185.92 653.75,185.6 C647.98,196.18 653.03,203.88 653.03,203.88 L658.81,202.88 L674.46,199.83 C673.74,200.31 674.22,205.6 674.22,205.6 C675.605731,206.65392 676.524468,208.207879 676.78,209.93 C676.93,212.28 679.78,215.93 680.31,216.58 L680.39,216.67 C680.797217,214.410714 682.175411,212.443953 684.16,211.29 L687.77,216.11 L688.98,221.88 C688.98,221.88 688.65,222.69 686.57,224.29 C684.49,225.89 687.45,230.06 687.45,230.06 C688.45,231.75 688.74,238 688.74,238 L688.74,238 C691.39,235.68 695.55,235.68 695.55,235.68 C697.244001,233.979596 698.628115,231.996488 699.64,229.82 C699.811041,229.098185 700.303683,228.494689 700.976638,228.182594 C701.649593,227.870499 702.428511,227.884286 703.09,228.22 C704.297717,227.170938 705.615383,226.255613 707.02,225.49 C708.95,224.49 711.19,226.49 711.19,226.49 L711.43,233.88 C711.43,233.88 711.62,234.18 711.93,234.59 C712.56,235.47 713.69,236.82 714.4,236.59 C715.4,236.27 723.46,237.07 723.46,237.07 C723.46,237.07 726.27,238.27 727.31,236.75 C728.35,235.23 734.31,231.22 734.31,231.22 C734.31,231.22 735.46,246.11 735.46,250.27 C735.46,254.43 738.46,254.77 738.46,254.77 L750.28,254.57 Z" id="Path" fill="#D39999" fill-rule="nonzero"></path>
            <path d="M750.46,254.57 L750.25,254.57 C750.63,253.57 750.46,254.57 750.46,254.57 Z" id="Path"></path>
            <circle id="Oval" fill="#4B4442" fill-rule="nonzero" cx="684.65" cy="244.82" r="1.44"></circle>
            <circle id="Oval" fill="#4B4442" fill-rule="nonzero" cx="674.14" cy="265.76" r="1.44"></circle>
            <circle id="Oval" fill="#4B4442" fill-rule="nonzero" cx="653.45" cy="310.59" r="1.44"></circle>
            <circle id="Oval" fill="#4B4442" fill-rule="nonzero" cx="663.23" cy="287.97" r="1.44"></circle>
            <path d="M639.46,525.37 C631.94,534.31 623.82,534.16 618.98,532.9 L619.16,528.27 C619.16,528.27 639.16,519.13 638.65,521.05 C638.46,521.77 638.84,523.5 639.46,525.37 Z" id="Path" fill="#000000" fill-rule="nonzero" opacity="0.05"></path>
            <path d="M694.27,535.49 C681.5,542.87 674.01,534.22 672.27,531.77 C673.34,528.96 674.95,524.4 674.62,523.1 C674.14,521.17 694.11,530.31 694.11,530.31 L694.27,535.49 Z" id="Path" fill="#000000" fill-rule="nonzero" opacity="0.05"></path>
            <path d="M699.4,519.93 C696.84,523.62 696.99,532.76 696.99,532.76 C680.47,544.63 671.81,530.19 671.81,530.19 C671.81,530.19 672.93,520.89 671.01,513.51 C669.872217,508.720703 669.763151,503.744549 670.69,498.91 C670.69,498.91 670.37,484.15 669.56,482.07 C668.75,479.99 668.44,473.89 668.76,471.64 C669.08,469.39 666.68,464.27 666.68,464.27 C666.68,464.27 666.68,457.85 665.55,456.41 C664.42,454.97 663.15,444.69 663.15,444.69 L655.46,415.82 C655.46,415.82 652.25,398.34 650.97,394.49 C649.69,390.64 648.08,391.44 648.08,391.44 L643.46,412.13 L639.93,447.42 C638.16,451.42 638.93,460.74 638.93,460.74 L640.05,474.37 L638.19,497.79 C638.185084,497.829849 638.185084,497.870151 638.19,497.91 C638.186797,498.367148 638.40236,498.798273 638.77,499.07 C641.925375,506.166717 642.863008,514.051194 641.46,521.69 C629.27,539.34 614.51,530.19 614.51,530.19 C614.188152,526.160059 613.215552,522.208875 611.63,518.49 C608.9,511.75 612.11,484.49 612.11,484.49 L609.7,466.84 C609.7,466.84 609.54,456.25 609.06,454.84 C608.58,453.43 608.74,442.97 608.74,442.97 L609.06,431.9 C604.89,417.78 606.97,395.49 606.97,395.49 C606.97,395.49 606.33,359.88 607.62,358.27 C608.55,357.11 607.96,351.83 608.36,348.02 C608.402442,346.863418 608.725011,345.734425 609.3,344.73 L609.46,344.57 C611.55,342 611.55,331.74 611.38,327.72 C611.3,325.6 612.75,322.16 614.13,319.4 C615.13,317.46 616.04,315.86 616.38,315.28 L616.52,315.05 C616.52,315.05 625.66,317.3 649.88,328.85 C654.217152,330.996782 658.868891,332.438214 663.66,333.12 C666.044055,333.438564 668.457315,333.475484 670.85,333.23 C674.500753,332.878889 678.030208,331.731987 681.19,329.87 C682.860497,328.917283 684.369253,327.705553 685.66,326.28 C685.33,327.28 685.53,330.7 685.66,332.74 C685.72,333.67 685.79,334.3 685.79,334.3 L688.46,346.2 C688.894876,347.6112 689.229049,349.051485 689.46,350.51 C689.65,351.57 689.81,352.72 689.96,353.94 C691.83,369.16 690.83,394.81 690.83,394.81 C690.83,394.81 694.83,429.94 692.92,431.54 C691.01,433.14 692.59,438.6 692.59,438.6 C694.041953,441.730214 694.912776,445.098302 695.16,448.54 C695.146301,451.228041 695.810063,453.876209 697.09,456.24 L696.44,472.12 L698.12,506.57 C698.12,506.57 701.97,516.24 699.4,519.93 Z" id="Path" fill="#8499F0" fill-rule="nonzero"></path>
            <path d="M680.59,461.86 C680.59,461.86 692.74,454.86 695.39,458.01 C698.04,461.16 680.59,461.86 680.59,461.86 Z" id="Path" fill="#000000" fill-rule="nonzero" opacity="0.05"></path>
            <path d="M687.93,465.71 C687.93,465.71 685.93,466.71 690.34,467.99 C694.75,469.27 687.93,465.71 687.93,465.71 Z" id="Path" fill="#000000" fill-rule="nonzero" opacity="0.05"></path>
            <path d="M614.46,446.46 C614.05,446.58 624.57,453.56 634.07,447.78 C634.03,447.78 616.83,445.74 614.46,446.46 Z" id="Path" fill="#000000" fill-rule="nonzero" opacity="0.05"></path>
            <path d="M633.55,459.81 C633.55,459.81 630.67,465.47 624.77,466.31 C618.87,467.15 633.55,459.81 633.55,459.81 Z" id="Path" fill="#000000" fill-rule="nonzero" opacity="0.05"></path>
            <path d="M672.17,472.09 C672.17,472.09 686.01,494.09 683.36,499.28 C680.71,504.47 672.17,472.09 672.17,472.09 Z" id="Path" fill="#000000" fill-rule="nonzero" opacity="0.05"></path>
            <path d="M648.83,338.66 L647.39,381.73 C647.39,381.73 655.93,381.37 657.39,367.18 C658.85,352.99 659.92,341.43 659.92,341.43 L648.83,338.66 Z" id="Path" fill="#000000" fill-rule="nonzero" opacity="0.05"></path>
            <path d="M648.35,337.7 L646.91,380.77 C646.91,380.77 655.45,380.41 656.91,366.21 C658.37,352.01 659.46,340.47 659.46,340.47 L648.35,337.7 Z" id="Path" fill="#8499F0" fill-rule="nonzero"></path>
            <path d="M631.03,339.63 C631.03,339.63 624.29,357.7 608.87,348.95 C608.910845,347.793165 609.233521,346.663797 609.81,345.66 C614.03,347.43 623.81,350.02 627.81,338.3 L631.03,339.63 Z" id="Path" fill="#000000" fill-rule="nonzero" opacity="0.05"></path>
            <path d="M630.55,337.7 C630.55,337.7 623.81,355.77 608.39,347.02 C608.432442,345.863418 608.755011,344.734425 609.33,343.73 C613.55,345.51 623.33,348.09 627.33,336.38 L630.55,337.7 Z" id="Path" fill="#000000" fill-rule="nonzero" opacity="0.05"></path>
            <path d="M630.55,338.66 C630.55,338.66 623.81,356.73 608.39,347.98 C608.432442,346.823418 608.755011,345.694425 609.33,344.69 C613.55,346.47 623.33,349.05 627.33,337.34 L630.55,338.66 Z" id="Path" fill="#8499F0" fill-rule="nonzero"></path>
            <path d="M689.55,354.9 C672.61,362.96 666.4,343.96 666.4,343.96 L670.4,344.08 C671.1,356.23 684.49,352.96 689.08,351.47 C689.24,352.57 689.4,353.68 689.55,354.9 Z" id="Path" fill="#000000" fill-rule="nonzero" opacity="0.05"></path>
            <path d="M690.51,353.46 C673.58,361.51 667.36,342.51 667.36,342.51 L671.36,342.63 C672.06,354.78 685.45,351.52 690.04,350.03 C690.2,351.09 690.36,352.24 690.51,353.46 Z" id="Path" fill="#000000" fill-rule="nonzero" opacity="0.05"></path>
            <path d="M690.03,353.94 C673.1,361.99 666.88,342.99 666.88,342.99 L670.88,343.11 C671.58,355.27 684.97,352 689.56,350.51 C689.72,351.57 689.88,352.72 690.03,353.94 Z" id="Path" fill="#8499F0" fill-rule="nonzero"></path>
            <path d="M630.55,338.66 C630.55,338.66 623.81,356.73 608.39,347.98 C608.432442,346.823418 608.755011,345.694425 609.33,344.69 C613.55,346.47 623.33,349.05 627.33,337.34 L630.55,338.66 Z" id="Path" fill="#FFFFFF" fill-rule="nonzero" opacity="0.1"></path>
            <path d="M690.03,353.94 C673.1,361.99 666.88,342.99 666.88,342.99 L670.88,343.11 C671.58,355.27 684.97,352 689.56,350.51 C689.72,351.57 689.88,352.72 690.03,353.94 Z" id="Path" fill="#FFFFFF" fill-rule="nonzero" opacity="0.1"></path>
            <path d="M644.86,559.57 C644.86,560.8 644.86,561.95 644.74,562.9 C644.38,567.35 633.43,565.67 633.43,565.67 C623.43,567.06 619.83,562.26 618.64,557.67 C618.265992,556.179111 618.081205,554.64706 618.09,553.11 C618.083521,552.193511 618.143679,551.277764 618.27,550.37 L618.27,549.46 C620.424961,548.810018 622.762331,549.287262 624.49,550.73 C628.94,554.34 634.84,551.57 634.84,551.57 C634.84,551.57 639.17,551.93 640.84,553.37 C641.78,554.18 643.33,552.23 644.51,550.37 C644.58,551.57 644.69,553.74 644.76,556.06 C644.84,557.25 644.86,558.45 644.86,559.57 Z" id="Path" fill="#000000" fill-rule="nonzero" opacity="0.05"></path>
            <path d="M627.3,559.31 C627.3,559.31 624.3,562.25 618.64,557.71 C618.265992,556.219111 618.081205,554.68706 618.09,553.15 C620.98,555.35 626.34,559.31 627.3,559.31 Z" id="Path" fill="#000000" fill-rule="nonzero" opacity="0.05"></path>
            <path d="M644.86,559.57 C644.366596,559.950563 643.737959,560.110525 643.122667,560.012079 C642.507376,559.913632 641.960031,559.565513 641.61,559.05 C642.776652,558.162299 643.848955,557.157015 644.81,556.05 C644.84,557.25 644.86,558.45 644.86,559.57 Z" id="Path" fill="#000000" fill-rule="nonzero" opacity="0.05"></path>
            <path d="M668.33,561.63 C668.33,562.87 668.33,564.02 668.44,564.96 C668.8,569.42 679.75,567.73 679.75,567.73 C689.75,569.13 693.35,564.33 694.54,559.73 C695.129403,557.342773 695.255009,554.864587 694.91,552.43 L694.91,551.52 C692.751343,550.881187 690.41635,551.357181 688.68,552.79 C684.23,556.4 678.34,553.63 678.34,553.63 C678.34,553.63 674.01,554 672.34,555.44 C671.4,556.25 669.85,554.3 668.68,552.44 C668.61,553.64 668.49,555.81 668.42,558.13 C668.34,559.3 668.32,560.5 668.33,561.63 Z" id="Path" fill="#000000" fill-rule="nonzero" opacity="0.05"></path>
            <path d="M685.89,561.35 C685.89,561.35 688.89,564.29 694.54,559.75 C694.917277,558.26292 695.10543,556.734182 695.1,555.2 C692.2,557.39 686.84,561.35 685.89,561.35 Z" id="Path" fill="#000000" fill-rule="nonzero" opacity="0.05"></path>
            <path d="M668.33,561.63 C668.821768,562.010118 669.44887,562.169876 670.062567,562.071381 C670.676264,561.972887 671.22188,561.624915 671.57,561.11 C670.40224,560.223611 669.329807,559.218205 668.37,558.11 C668.34,559.3 668.32,560.5 668.33,561.63 Z" id="Path" fill="#000000" fill-rule="nonzero" opacity="0.05"></path>
            <path d="M655.13,254.57 C655.13,254.57 639.73,297.08 645.66,300.77 C651.59,304.46 655.13,254.57 655.13,254.57 Z" id="Path" fill="#000000" fill-rule="nonzero" opacity="0.05"></path>
            <path d="M666.36,241.45 C666.36,241.45 663.46,255.57 664.91,256.85 C666.36,258.13 666.36,241.45 666.36,241.45 Z" id="Path" fill="#000000" fill-rule="nonzero" opacity="0.05"></path>
            <path d="M697.46,274.34 C697.46,274.34 678.53,291.98 679.81,293.43 C681.09,294.88 697.46,274.34 697.46,274.34 Z" id="Path" fill="#000000" fill-rule="nonzero" opacity="0.05"></path>
            <path d="M711.93,235.51 C704.76,237.7 688,242.82 687.81,242.78 L688.74,238.96 C691.39,236.64 695.55,236.64 695.55,236.64 C697.244001,234.939596 698.628115,232.956488 699.64,230.78 C699.811041,230.058185 700.303683,229.454689 700.976638,229.142594 C701.649593,228.830499 702.428511,228.844286 703.09,229.18 C704.300479,228.134494 705.617751,227.219442 707.02,226.45 C708.95,225.45 711.19,227.45 711.19,227.45 L711.43,234.83 C711.43,234.83 711.62,235.1 711.93,235.51 Z" id="Path" fill="#000000" fill-rule="nonzero" opacity="0.05"></path>
            <path d="M711.93,234.57 C704.76,236.76 688,241.88 687.81,241.83 L688.74,238.02 C691.39,235.7 695.55,235.7 695.55,235.7 C697.244001,233.999596 698.628115,232.016488 699.64,229.84 C699.811041,229.118185 700.303683,228.514689 700.976638,228.202594 C701.649593,227.890499 702.428511,227.904286 703.09,228.24 C704.297717,227.190938 705.615383,226.275613 707.02,225.51 C708.95,224.51 711.19,226.51 711.19,226.51 L711.43,233.9 C711.43,233.9 711.62,234.14 711.93,234.57 Z" id="Path" fill="#D39999" fill-rule="nonzero"></path>
            <path d="M686.97,230.57 C687.97,232.26 688.25,238.51 688.25,238.51 L685.46,240.73 L680.16,225.45 L679.92,217.51 L679.82,217.06 L679.9,217.15 C680.304793,214.892263 681.68403,212.927674 683.67,211.78 L687.28,216.59 L688.49,222.36 C688.49,222.36 688.16,223.17 686.08,224.77 C684,226.37 686.97,230.57 686.97,230.57 Z" id="Path" fill="#000000" fill-rule="nonzero" opacity="0.05"></path>
            <path d="M687.46,230.06 C688.46,231.75 688.75,238 688.75,238 L685.96,240.25 L680.66,224.97 L680.42,217.03 L680.31,216.58 L680.39,216.67 C680.797217,214.410714 682.175411,212.443953 684.16,211.29 L687.77,216.11 L688.98,221.88 C688.98,221.88 688.65,222.69 686.57,224.29 C684.49,225.89 687.46,230.06 687.46,230.06 Z" id="Path" fill="#D39999" fill-rule="nonzero"></path>
            <path d="M722.82,203.92 C722.814478,215.875662 713.118999,225.56368 701.163336,225.56 C689.207674,225.556318 679.518163,215.862331 679.520003,203.906668 C679.521842,191.951006 689.214337,182.260001 701.17,182.26 C706.928408,182.211494 712.464922,184.478268 716.535935,188.551161 C720.606948,192.624055 722.871165,198.161615 722.82,203.92 L722.82,203.92 Z" id="Path" fill="#000000" fill-rule="nonzero" opacity="0.05"></path>
            <path d="M722.820337,202.95 C722.824045,211.712471 717.548238,219.614194 709.453544,222.969315 C701.358849,226.324436 692.040073,224.471934 685.844069,218.275931 C679.648066,212.079927 677.795564,202.761151 681.150685,194.666456 C684.505806,186.571762 692.407529,181.295955 701.17,181.299663 C706.921732,181.267852 712.447193,183.538502 716.514345,187.605655 C720.581498,191.672807 722.852148,197.198268 722.820337,202.95 Z" id="Path" fill="#F6BAC2" fill-rule="nonzero"></path>
            <path d="M722.820033,202.95 C722.826933,206.918649 721.736796,210.811994 719.67,214.2 C719.35,213.63 719.16,212.97 718.84,212.39 C718.39,211.58 717.35,210.9 716.58,211.39 C716.257554,211.653272 716.012241,211.998783 715.87,212.39 C715.24,213.72 714.12,215.05 712.65,215.02 C711.341415,214.879884 710.253196,213.950529 709.91,212.68 C709.60135,211.430236 709.54694,210.131197 709.75,208.86 C709.97,206.26 710.01,203.26 708.08,201.51 C706.834185,200.598773 705.409649,199.961481 703.9,199.64 C702.43,199.16 700.9,198.4 700.3,196.98 C699.9,195.98 700,194.92 699.64,193.98 C698.884624,192.451602 697.434126,191.385168 695.75,191.12 C693.838545,192.698378 691.417713,193.526651 688.94,193.45 C686.669449,193.396378 684.416215,193.039897 682.24,192.39 C687.040939,183.77577 697.05472,179.492005 706.600328,181.96897 C716.145935,184.445935 722.813344,193.058259 722.820033,202.92 L722.820033,202.95 Z" id="Path" fill="#000000" fill-rule="nonzero" opacity="0.05"></path>
            <path d="M699.64,193.04 C700,194.04 699.9,195.12 700.3,196.04 C700.89,197.46 702.43,198.22 703.9,198.7 C705.408295,199.020186 706.832427,199.65389 708.08,200.56 C710.01,202.32 709.97,205.32 709.75,207.92 C709.54694,209.191197 709.60135,210.490236 709.91,211.74 C710.258145,213.007392 711.343739,213.934505 712.65,214.08 C714.12,214.08 715.24,212.78 715.87,211.45 C716.01312,211.059244 716.258279,210.713949 716.58,210.45 C717.35,209.94 718.39,210.62 718.84,211.45 C719.154927,212.316038 719.58911,213.133918 720.13,213.88 C720.853013,214.503586 721.838075,214.728315 722.76,214.48 C723.664591,214.232815 724.506454,213.796545 725.23,213.2 C727.233879,211.805122 728.823302,209.894359 729.83,207.67 C730.823645,205.417864 730.716526,202.832229 729.54,200.67 C728.79,199.41 727.6,198.4 727.13,197.01 C726.31,194.62 727.85,192.16 728.8,189.82 C729.710431,187.680069 730.004833,185.328322 729.65,183.03 C729.277636,180.718134 727.991094,178.653181 726.08,177.3 C722.28,174.77 717.14,176.16 712.74,174.94 C711.165782,174.42325 709.631653,173.79155 708.15,173.05 C705.904461,172.052591 703.557418,171.301538 701.15,170.81 C698.76,170.33 695.87,170.27 694.36,172.18 C693.946992,172.792312 693.579344,173.434026 693.26,174.1 C692.306978,175.69849 690.749471,176.844988 688.94,177.28 C687.65,177.59 686.3,177.51 684.94,177.7 C683.596144,177.793346 682.369095,178.497149 681.61,179.61 C680.95,180.81 681.23,182.27 681.39,183.61 C681.55,184.95 681.47,186.55 680.39,187.38 C679.88,187.77 679.18,187.96 678.87,188.51 C678.577358,189.173467 678.770683,189.950882 679.34,190.4 C679.902252,190.825452 680.556425,191.113151 681.25,191.24 C683.736862,192.01653 686.316378,192.457099 688.92,192.55 C691.551504,192.635509 694.112736,191.692086 696.06,189.92 C695.89,190.09 694.79,190.02 694.59,190.01 C696.53,190.22 698.91,191.08 699.64,193.04 Z" id="Path" fill="#7E646B" fill-rule="nonzero"></path>
            <g id="Group" opacity="0.05" transform="translate(679.000000, 178.000000)" fill="#000000" fill-rule="nonzero">
                <path d="M47.46,32.77 C46.7343838,33.3656535 45.8934482,33.8048465 44.99,34.06 C44.0694757,34.2985198 43.0905024,34.0705909 42.37,33.45 C41.8239143,32.7055641 41.3862187,31.88741 41.07,31.02 C40.62,30.21 39.58,29.53 38.81,30.02 C38.4923817,30.2877497 38.2480604,30.6318642 38.1,31.02 C37.48,32.35 36.35,33.68 34.88,33.65 C33.5728642,33.5114435 32.4868413,32.5805667 32.15,31.31 C31.8380207,30.0609096 31.7802099,28.7618654 31.98,27.49 C32.21,24.89 32.24,21.9 30.32,20.14 C29.0703097,19.2290672 27.6425878,18.5918739 26.13,18.27 C24.67,17.79 23.13,17.03 22.53,15.61 C22.13,14.61 22.23,13.55 21.87,12.61 C21.28,11.02 19.61,10.15 17.98,9.75 C16.0619398,11.3176082 13.6464964,12.1475844 11.17,12.09 C8.56645286,11.9887995 5.98759038,11.5449796 3.5,10.77 C2.8085652,10.6419653 2.15537713,10.3581192 1.59,9.94 C1.47344373,9.83205279 1.3694514,9.71128751 1.28,9.58 C0.838193111,9.76908129 0.452487721,10.0686917 0.16,10.45 C-0.132642218,11.1134671 0.0606832847,11.8908824 0.63,12.34 C1.19225214,12.7654523 1.84642484,13.0531513 2.54,13.18 C5.02686154,13.9565301 7.60637775,14.3970994 10.21,14.49 C12.6830597,14.5560201 15.0971232,13.7288484 17.01,12.16 C18.64,12.56 20.32,13.42 20.91,15.01 C21.27,16.01 21.17,17.09 21.57,18.01 C22.17,19.43 23.7,20.19 25.17,20.67 C26.6782949,20.9901855 28.1024273,21.6238904 29.35,22.53 C31.28,24.29 31.24,27.29 31.02,29.89 C30.8169398,31.1611973 30.8713498,32.4602356 31.18,33.71 C31.5281448,34.9773917 32.613739,35.904505 33.92,36.05 C35.39,36.05 36.51,34.75 37.14,33.42 C37.2831195,33.0292442 37.5282792,32.6839489 37.85,32.42 C38.62,31.91 39.66,32.59 40.11,33.42 C40.4243368,34.2882501 40.8621711,35.1066634 41.41,35.85 C42.1290968,36.4734839 43.1112349,36.698401 44.03,36.45 C44.9345906,36.2028146 45.7764541,35.7665452 46.5,35.17 C48.5038785,33.7751223 50.093302,31.8643588 51.1,29.64 C51.2777149,29.2119526 51.4214915,28.7705919 51.53,28.32 C50.5060831,30.0765184 49.11839,31.593775 47.46,32.77 L47.46,32.77 Z" id="Path"></path>
                <path d="M49.46,13.15 C49.67,12.69 49.87,12.23 50.06,11.78 C50.25,11.33 50.32,11.08 50.43,10.72 C50.0620553,11.5114721 49.7382261,12.3227143 49.46,13.15 Z" id="Path"></path>
                <path d="M2.7,6.86 C3.7,6.01 3.77,4.49 3.61,3.18 C3.49209951,2.41546434 3.42860668,1.64352519 3.42,0.87 C3.20678006,1.07822002 3.02186205,1.31357021 2.87,1.57 C2.21,2.77 2.49,4.23 2.65,5.57 C2.7023294,5.99787598 2.71905348,6.42935724 2.7,6.86 Z" id="Path"></path>
            </g>
            <path d="M685.64,333.73 C683.78,333.86 681.17,334 678.03,334.11 C675.85,334.18 673.41,334.23 670.8,334.23 C668.52,334.23 666.11,334.23 663.61,334.12 C655.702629,333.915853 647.822695,333.103454 640.04,331.69 C629.65,329.69 620.04,326.24 614.04,320.4 C615.04,318.46 615.95,316.85 616.29,316.28 C616.29,315.72 616.29,315.07 616.23,314.37 C626.78,319.37 659.67,333.26 684.88,325.37 C684.88,326.2 685,326.75 685,326.75 L685.57,327.23 C685.28,328.27 685.46,331.69 685.64,333.73 Z" id="Path" fill="#000000" fill-rule="nonzero" opacity="0.05"></path>
            <path d="M685.64,332.77 C683.78,332.9 681.17,333.04 678.03,333.14 C675.85,333.22 673.41,333.26 670.8,333.26 C668.52,333.26 666.11,333.26 663.61,333.15 C655.702877,332.949313 647.822933,332.140256 640.04,330.73 C629.65,328.73 620.04,325.27 614.04,319.43 C615.04,317.49 615.95,315.89 616.29,315.31 C616.29,314.75 616.29,314.11 616.23,313.4 C626.78,318.4 659.67,332.3 684.88,324.45 C684.88,325.28 685,325.83 685,325.83 L685.57,326.31 C685.28,327.31 685.46,330.73 685.64,332.77 Z" id="Path" fill="#4B4442" fill-rule="nonzero"></path>
            <path d="M186.53,770.44 C184.106522,767.522742 182.995603,763.734037 183.46,759.97 L227.6,398.8 L231.26,368.8 C232.108474,361.896793 237.945051,356.69351 244.9,356.64 L374.19,355.78 C377.909106,355.757203 381.46229,354.237441 384.047556,351.563742 C386.632822,348.890042 388.03226,345.28777 387.93,341.57 L387.88,340.2 C387.752592,336.4504 389.152909,332.80973 391.760176,330.111973 C394.367442,327.414215 397.958236,325.89 401.71,325.89 L537.57,325.89 C545.196398,325.89 551.383457,332.06362 551.4,339.69 C551.399225,340.311909 551.359145,340.933147 551.28,341.55 C550.759113,345.442454 551.917612,349.372816 554.466449,352.36045 C557.015286,355.348083 560.71409,357.111237 564.64,357.21 L695.12,360.54 C699.134647,360.638722 702.907808,362.478848 705.457488,365.58147 C708.007168,368.684093 709.081178,372.742332 708.4,376.7 L643.17,757.7 L641.94,764.9 C641.635968,766.739425 640.95506,768.496167 639.94,770.06 L186.53,770.44 Z" id="Path" fill="#B7B6CC" fill-rule="nonzero"></path>
            <g id="Group" opacity="0.5" transform="translate(429.000000, 246.000000)" fill="url(#linearGradient-3)" fill-rule="nonzero">
                <rect id="Rectangle" transform="translate(108.530153, 131.407498) rotate(-55.360000) translate(-108.530153, -131.407498) " x="-22.8848467" y="91.2274984" width="262.83" height="80.36"></rect>
            </g>
            <rect id="Rectangle" fill="#F9FAFB" fill-rule="nonzero" transform="translate(538.017738, 377.758469) rotate(34.640000) translate(-538.017738, -377.758469) " x="499.817738" y="248.103469" width="76.4" height="259.31"></rect>
            <rect id="Rectangle" fill="#F7B643" fill-rule="nonzero" transform="translate(591.567050, 297.017950) rotate(34.804012) translate(-591.567050, -297.017950) " x="564.598531" y="270.049431" width="53.9370372" height="53.9370372"></rect>
            <rect id="Rectangle" fill="#F7B643" fill-rule="nonzero" opacity="0.5" transform="translate(556.989780, 350.420501) rotate(34.640000) translate(-556.989780, -350.420501) " x="529.98478" y="323.415501" width="54.01" height="54.01"></rect>
            <rect id="Rectangle" fill="#F7B643" fill-rule="nonzero" opacity="0.3" transform="translate(519.915178, 404.069223) rotate(34.640000) translate(-519.915178, -404.069223) " x="492.910178" y="377.064223" width="54.01" height="54.01"></rect>
            <g id="Group" opacity="0.5" transform="translate(415.000000, 233.000000)" fill="url(#linearGradient-4)" fill-rule="nonzero">
                <rect id="Rectangle" transform="translate(76.279673, 137.513642) rotate(-73.710000) translate(-76.279673, -137.513642) " x="-54.6453272" y="97.3336418" width="261.85" height="80.36"></rect>
            </g>
            <rect id="Rectangle" fill="#F9FAFB" fill-rule="nonzero" transform="translate(491.913973, 370.705363) rotate(16.290000) translate(-491.913973, -370.705363) " x="453.713973" y="241.540363" width="76.4" height="258.33"></rect>
            <rect id="Rectangle" fill="#F97878" fill-rule="nonzero" transform="translate(519.451704, 276.664213) rotate(16.290000) translate(-519.451704, -276.664213) " x="492.446704" y="249.659213" width="54.01" height="54.01"></rect>
            <rect id="Rectangle" fill="#F97878" fill-rule="nonzero" opacity="0.5" transform="translate(501.159525, 339.251161) rotate(16.290000) translate(-501.159525, -339.251161) " x="474.154525" y="312.246161" width="54.01" height="54.01"></rect>
            <rect id="Rectangle" fill="#F97878" fill-rule="nonzero" opacity="0.3" transform="translate(482.870152, 401.828511) rotate(16.290000) translate(-482.870152, -401.828511) " x="455.865152" y="374.823511" width="54.01" height="54.01"></rect>
            <g id="Group" opacity="0.5" transform="translate(416.000000, 237.000000)" fill="url(#linearGradient-5)" fill-rule="nonzero">
                <rect id="Rectangle" transform="translate(50.675847, 134.668819) rotate(-85.400000) translate(-50.675847, -134.668819) " x="-80.2491525" y="94.4888189" width="261.85" height="80.36"></rect>
            </g>
            <rect id="Rectangle" fill="#F9FAFB" fill-rule="nonzero" transform="translate(467.250462, 371.733233) rotate(4.600000) translate(-467.250462, -371.733233) " x="429.050462" y="242.568233" width="76.4" height="258.33"></rect>
            <rect id="Rectangle" fill="#73B53B" fill-rule="nonzero" transform="translate(475.123157, 274.068604) rotate(4.600000) translate(-475.123157, -274.068604) " x="448.118157" y="247.063604" width="54.01" height="54.01"></rect>
            <rect id="Rectangle" fill="#73B53B" fill-rule="nonzero" opacity="0.5" transform="translate(469.887875, 339.049823) rotate(4.600000) translate(-469.887875, -339.049823) " x="442.882875" y="312.044823" width="54.01" height="54.01"></rect>
            <rect id="Rectangle" fill="#73B53B" fill-rule="nonzero" opacity="0.3" transform="translate(464.661760, 404.051812) rotate(4.600000) translate(-464.661760, -404.051812) " x="437.65676" y="377.046812" width="54.01" height="54.01"></rect>
            <g id="Group" opacity="0.5" transform="translate(402.000000, 244.000000)" fill="url(#linearGradient-6)" fill-rule="nonzero">
                <rect id="Rectangle" transform="translate(46.656117, 133.595524) rotate(-2.610000) translate(-46.656117, -133.595524) " x="6.47611698" y="2.67052403" width="80.36" height="261.85"></rect>
            </g>
            <rect id="Rectangle" fill="#FFFFFF" fill-rule="nonzero" transform="translate(449.314066, 377.565501) rotate(-2.610000) translate(-449.314066, -377.565501) " x="411.114066" y="248.400501" width="76.4" height="258.33"></rect>
            <rect id="Rectangle" fill="#6C63FF" fill-rule="nonzero" transform="translate(444.856037, 279.669917) rotate(-2.610000) translate(-444.856037, -279.669917) " x="417.851037" y="252.664917" width="54.01" height="54.01"></rect>
            <rect id="Rectangle" fill="#6C63FF" fill-rule="nonzero" opacity="0.5" transform="translate(450.088750, 342.648250) rotate(-2.862405) translate(-450.088750, -342.648250) " x="423.050015" y="315.609515" width="54.0774704" height="54.0774704"></rect>
            <rect id="Rectangle" fill="#6C63FF" fill-rule="nonzero" opacity="0.3" transform="translate(450.792035, 409.944743) rotate(-2.610000) translate(-450.792035, -409.944743) " x="423.787035" y="382.939743" width="54.01" height="54.01"></rect>
            <path d="M437.68,590.71 L369.8,616.97 L270.59,655.32 C266.84,648.32 261.32,638.86 254.49,627.57 C230.99,588.63 192.11,528.06 157.49,474.83 C118.49,414.83 84.92,364.2 84.92,364.2 L109.22,357.2 L307.72,299.57 L437.68,590.71 Z" id="Path" fill="#E6ECF8" fill-rule="nonzero"></path>
            <path d="M437.68,590.71 L369.8,616.97 C331.880351,624.870125 293.18439,628.426369 254.46,627.57 C230.96,588.63 192.08,528.06 157.46,474.83 L109.23,357.16 L307.72,299.57 L437.68,590.71 Z" id="Path" fill="#000000" fill-rule="nonzero" opacity="0.1"></path>
            <path d="M488.18,574.37 C488.18,574.37 382.73,636.75 225.29,622.64 L99.78,316.64 L159.93,306.3 L367.87,270.59 L485.87,568.42 L488.18,574.37 Z" id="Path" fill="#6C63FF" fill-rule="nonzero"></path>
            <path d="M485.83,568.46 C461,569.68 432.27,569.56 403.37,566.11 C372.09,562.43 340.63,554.85 313.66,540.95 C291.11,529.34 271.83,516.71 255.02,501.56 C211.29,462.23 184.23,405.97 159.93,306.34 L367.87,270.63 L485.83,568.46 Z" id="Path" fill="#000000" fill-rule="nonzero" opacity="0.1"></path>
            <path d="M563.19,551.35 C563.19,551.35 485.46,566.57 406.34,557.2 C375.06,553.52 343.6,545.94 316.63,532.04 C294.08,520.43 274.81,507.8 257.99,492.65 C203.87,443.96 175.29,369.34 145.82,218.65 C145.82,218.65 275.04,249.84 402.82,181.52 C402.78,181.57 445.85,450.35 563.19,551.35 Z" id="Path" fill="#F9FAFB" fill-rule="nonzero"></path>
            <path d="M406.34,557.2 C375.06,553.52 343.6,545.94 316.63,532.04 C294.08,520.43 274.81,507.8 257.99,492.65 C304.07,488.91 310.69,463.72 310.69,463.72 C344.85,517.93 406.34,557.2 406.34,557.2 Z" id="Path" fill="#000000" fill-rule="nonzero" opacity="0.1"></path>
            <path d="M212.66,273.97 C212.66,273.97 317.74,268.03 347.08,245.38 L351.53,259.68 C351.53,259.68 282.1,290.31 212.66,290.68 L212.66,273.97 Z" id="Path" fill="#6C63FF" fill-rule="nonzero" opacity="0.3"></path>
            <path d="M212.66,344.57 C212.66,344.57 314.4,339 391.27,301.87 L393.87,307.81 C393.87,307.81 332.87,343.42 212.66,352.74 L212.66,344.57 Z" id="Path" fill="#6C63FF" fill-rule="nonzero" opacity="0.3"></path>
            <path d="M220.85,372.08 C220.85,372.08 322.59,366.51 399.45,329.38 L402.05,335.32 C402.05,335.32 341.05,370.92 220.85,380.25 L220.85,372.08 Z" id="Path" fill="#6C63FF" fill-rule="nonzero" opacity="0.3"></path>
            <path d="M229.03,399.63 C229.03,399.63 330.77,394.06 407.64,356.93 L410.23,362.87 C410.23,362.87 349.23,398.48 229.03,407.8 L229.03,399.63 Z" id="Path" fill="#6C63FF" fill-rule="nonzero" opacity="0.3"></path>
            <path d="M237.22,427.18 C237.22,427.18 338.96,421.61 415.82,384.48 L418.42,390.42 C418.42,390.42 357.42,426.03 237.22,435.35 L237.22,427.18 Z" id="Path" fill="#6C63FF" fill-rule="nonzero" opacity="0.3"></path>
            <path d="M245.4,454.74 C245.4,454.74 347.14,449.17 424.01,412.04 L426.6,417.98 C426.6,417.98 365.6,453.58 245.4,462.91 L245.4,454.74 Z" id="Path" fill="#6C63FF" fill-rule="nonzero" opacity="0.3"></path>
            <ellipse id="Oval" fill="#6C63FF" fill-rule="nonzero" opacity="0.1" cx="721.75" cy="815.19" rx="102" ry="9.24"></ellipse>
            <rect id="Rectangle" fill="url(#linearGradient-7)" fill-rule="nonzero" transform="translate(869.321442, 128.368597) rotate(-71.990000) translate(-869.321442, -128.368597) " x="783.986442" y="-24.3414027" width="170.67" height="305.42"></rect>
            <rect id="Rectangle" fill="#F6F7F9" fill-rule="nonzero" transform="translate(869.319896, 128.373352) rotate(-71.990000) translate(-869.319896, -128.373352) " x="785.159896" y="-22.2266477" width="168.32" height="301.2"></rect>
            <g id="Group" opacity="0.2" transform="translate(751.000000, 59.000000)" fill="#6C63FF" fill-rule="nonzero">
                <circle id="Oval" cx="31.94" cy="31.37" r="31.36"></circle>
            </g>
            <g id="Group" opacity="0.2" transform="translate(857.000000, 76.000000)" fill="#6C63FF" fill-rule="nonzero">
                <rect id="Rectangle" transform="translate(67.267021, 25.761611) rotate(-71.990000) translate(-67.267021, -25.761611) " x="62.9720213" y="-42.5533888" width="8.59" height="136.63"></rect>
            </g>
            <g id="Group" opacity="0.2" transform="translate(851.000000, 97.000000)" fill="#6C63FF" fill-rule="nonzero">
                <rect id="Rectangle" transform="translate(34.621943, 15.227042) rotate(-71.990000) translate(-34.621943, -15.227042) " x="30.3269429" y="-19.5729578" width="8.59" height="69.6"></rect>
            </g>
            <g id="Group" opacity="0.2" transform="translate(844.000000, 118.000000)" fill="#6C63FF" fill-rule="nonzero">
                <rect id="Rectangle" transform="translate(55.271086, 21.710659) rotate(-71.990000) translate(-55.271086, -21.710659) " x="50.9760861" y="-34.5743405" width="8.59" height="112.57"></rect>
            </g>
            <g id="Group" opacity="0.2" transform="translate(837.000000, 139.000000)" fill="#6C63FF" fill-rule="nonzero">
                <rect id="Rectangle" transform="translate(66.941594, 25.263011) rotate(-71.990000) translate(-66.941594, -25.263011) " x="62.6465937" y="-43.0519885" width="8.59" height="136.63"></rect>
            </g>
            <g id="Group" opacity="0.5" transform="translate(919.000000, 199.000000)" fill="#6C63FF" fill-rule="nonzero">
                <rect id="Rectangle" transform="translate(20.914192, 14.434884) rotate(-71.990000) translate(-20.914192, -14.434884) " x="12.6091918" y="-4.47011557" width="16.61" height="37.81"></rect>
            </g>
            <path d="M842.97,482.96 C842.955032,482.625085 842.921648,482.291247 842.87,481.96 C842.87,481.61 842.76,481.26 842.7,480.96 C842.57,480.28 842.43,479.61 842.27,478.96 C842.19,478.65 842.11,478.33 842.02,478.03 C841.072973,474.482731 839.367007,471.183391 837.02,468.36 C836.89,468.2 836.75,468.05 836.62,467.9 C836.49,467.75 836.08,467.32 835.81,467.05 C835.54,466.78 835.29,466.54 835.03,466.31 C834.77,466.08 834.53,465.87 834.29,465.67 C833.81,465.28 833.36,464.95 832.97,464.67 C832.58,464.39 832.4,464.29 832.16,464.15 C831.587125,463.807996 830.944539,463.599497 830.28,463.54 L826.13,463.13 L826.13,463.13 L820.46,462.57 L800.19,454.7 L799.39,454.98 C798.795759,453.34307 798.294953,451.673716 797.89,449.98 C798.504002,449.714357 799.050715,449.314573 799.49,448.81 C799.967914,448.438486 800.345926,447.953943 800.59,447.4 C801.1,446.22 800.12,443.71 800.32,442.27 C800.64,439.96 801.84,437.73 802.82,435.64 C804.9,431.15 806.42,426.28 806.17,421.35 C805.92,416.42 803.67,411.42 799.51,408.67 C797.36,407.24 794.83,406.48 792.59,405.18 C790.85,404.18 789.32,402.84 787.66,401.7 C779.354947,396.163024 768.74947,395.40332 759.74,399.7 C755.53,401.77 751.94,404.87 747.97,407.36 C744,409.85 739.32,411.76 734.67,411.02 C734.605648,411.208632 734.558784,411.402783 734.53,411.6 L734.14,411.55 C733.34,413.73 735.3,415.89 737.14,417.38 C740.57,420.21 744.46,423.03 748.93,423.13 C750.66,423.13 752.49,422.8 754.06,423.51 C754.41695,423.66771 754.752868,423.869261 755.06,424.11 C753.030806,432.240636 755.735495,440.822227 762.06,446.32 L751.71,442.6 C751.71,442.6 751.28,442.82 750.61,443.24 L736.25,433.68 C736.25,433.68 707.46,423.24 699.46,439.5 C691.46,455.76 734.13,447.37 734.13,447.37 L743.26,452.37 C742.952932,454.257315 743.30612,456.192785 744.26,457.85 L769.15,473.23 C764.15,474.78 755.86,477.23 754.39,477.23 C752.26,477.23 746.39,479.33 742.66,487.72 C738.93,496.11 725.59,537.04 713.86,543.86 C702.13,550.68 671.2,596.33 671.2,596.33 L671.34,596.69 C670.79,596.84 670.25,596.99 669.72,597.17 C663.224843,599.42474 657.603068,603.664685 653.65,609.29 C652.583654,610.772062 652.383556,612.708568 653.124326,614.377358 C653.865096,616.046149 655.435536,617.196719 657.25,617.4 C669.46,618.95 676.13,613.32 679.34,609.07 C679.55,608.8 679.74,608.53 679.92,608.26 C680.870056,608.6684 681.936039,608.718146 682.92,608.4 L697.85,596.33 C697.85,596.33 686.17,607.83 693.02,618.33 L692.5,619.06 C680.953867,635.544408 672.484228,653.981119 667.5,673.48 C667.5,673.48 661.1,678.2 660.57,697.09 C660.04,715.98 653.63,746.41 653.63,746.41 C653.63,746.41 649.37,782.62 652.03,793.63 C652.03,793.63 652.34,794.07 652.91,794.74 C652.71,794.98 652.49,795.24 652.25,795.5 C649.92,798.02 645.72,801.5 640.83,800.5 C633.37,798.92 633.37,812.04 644.03,813.09 C650.9,813.76 664.4,816.83 673.15,818.93 C675.084432,819.417866 677.135272,818.933862 678.64746,817.632584 C680.159649,816.331306 680.944006,814.375548 680.75,812.39 C680.23,807.69 679.28,802 677.55,797.95 C677.44,797.7 677.33,797.45 677.22,797.22 C677.53,796.92 677.85,796.62 678.16,796.3 C678.16,796.3 678.16,773.21 681.9,766.92 C681.9,766.92 692.03,719.17 691.49,707.1 C691.08,697.66 717.78,660.89 729.4,645.36 L729.3,644.77 C732.3,640.77 734.16,638.37 734.16,638.37 L743.15,695.57 C743.15,695.57 747.42,708.16 752.75,714.98 C752.75,714.98 775.68,758.53 778.35,772.17 C780.35,782.52 784.53,788.63 786.43,790.99 L785.74,791.65 C783.31,793.88 779.74,796.11 775.68,795.26 C768.22,793.68 768.22,806.8 778.88,807.85 C785.75,808.53 799.25,811.6 807.99,813.7 C809.927124,814.187671 811.980399,813.702518 813.494393,812.399409 C815.008387,811.0963 815.793831,809.13814 815.6,807.15 C814.99,801.69 813.8,794.9 811.5,790.89 C811.31417,790.5463 811.110561,790.212514 810.89,789.89 C811.703082,789.565251 812.429044,789.055023 813.01,788.4 C813.01,788.4 799.14,755.34 799.14,746.4 C799.14,746.4 793.28,712.3 773.55,699.71 C773.55,699.71 775.41,657.05 781.03,633.31 C781.17,632.73 781.31,632.15 781.45,631.59 C786.687671,630.771356 791.880888,629.689992 797.01,628.35 L797.54,612.61 L800.21,625.2 L830.07,606.84 C830.07,606.84 829.81,603.53 829.31,598.46 C829.05,595.92 828.74,592.94 828.37,589.71 C828.07,587.13 827.73,584.39 827.37,581.59 C827.27,580.89 827.18,580.18 827.08,579.48 C826.69,576.65 826.26,573.79 825.8,570.99 C825.62,569.936667 825.44,568.896667 825.26,567.87 C825.01,566.5 824.76,565.16 824.5,563.87 C824.37,563.22 824.23,562.57 824.1,561.94 C823.97,561.31 823.82,560.68 823.68,560.07 C823.54,559.46 823.4,558.87 823.26,558.28 C823.18,557.99 823.11,557.7 823.04,557.42 C822.89,556.85 822.74,556.29 822.59,555.75 C821.964129,553.506371 821.601687,551.197484 821.51,548.87 C821.51,547.95 821.51,547.02 821.51,546.1 C821.51,545.18 821.65,544.26 821.78,543.34 C821.84,542.89 821.92,542.43 822.01,541.98 C822.348999,540.151064 822.854434,538.356937 823.52,536.62 C823.85,535.75 824.23,534.89 824.64,534.04 C825.64,532.04 826.64,529.91 827.7,527.64 C828.24,526.51 828.78,525.35 829.32,524.17 C829.86,522.99 830.41,521.79 830.96,520.57 C836.15,509 841.27,496.11 842.64,487.64 C842.78,486.75 842.89,485.91 842.94,485.12 C842.998406,484.401486 843.008429,483.679858 842.97,482.96 Z" id="Path" fill="url(#linearGradient-8)" fill-rule="nonzero"></path>
            <path d="M753.9,451.57 L736.31,439.68 C736.31,439.68 708.38,429.33 700.62,445.37 C692.86,461.41 734.24,453.13 734.24,453.13 L751.83,462.95 L753.9,451.57 Z" id="Path" fill="#AE6E79" fill-rule="nonzero"></path>
            <rect id="Rectangle" fill="#F9FAFB" fill-rule="nonzero" transform="translate(718.709200, 550.276600) rotate(-57.264774) translate(-718.709200, -550.276600) " x="634.587219" y="419.320325" width="168.243963" height="261.912551"></rect>
            <rect id="Rectangle" fill="#B7B6CC" fill-rule="nonzero" transform="translate(613.197697, 523.266004) rotate(-57.570000) translate(-613.197697, -523.266004) " x="589.397697" y="517.666004" width="47.6" height="11.2"></rect>
            <rect id="Rectangle" fill="#B7B6CC" fill-rule="nonzero" transform="translate(658.289355, 507.125216) rotate(-57.570000) translate(-658.289355, -507.125216) " x="606.019355" y="501.990216" width="104.54" height="10.27"></rect>
            <rect id="Rectangle" fill="#B7B6CC" fill-rule="nonzero" transform="translate(676.807049, 518.879982) rotate(-57.570000) translate(-676.807049, -518.879982) " x="624.537049" y="513.744982" width="104.54" height="10.27"></rect>
            <rect id="Rectangle" fill="#B7B6CC" fill-rule="nonzero" transform="translate(695.319381, 530.653189) rotate(-57.570000) translate(-695.319381, -530.653189) " x="643.049381" y="525.518189" width="104.54" height="10.27"></rect>
            <rect id="Rectangle" fill="#B7B6CC" fill-rule="nonzero" transform="translate(714.650600, 547.942300) rotate(-57.264774) translate(-714.650600, -547.942300) " x="662.453829" y="542.814494" width="104.393541" height="10.2556119"></rect>
            <rect id="Rectangle" fill="#FFFFFF" fill-rule="nonzero" transform="translate(732.347847, 554.176524) rotate(-57.570000) translate(-732.347847, -554.176524) " x="680.077847" y="549.041524" width="104.54" height="10.27"></rect>
            <rect id="Rectangle" fill="#FFFFFF" fill-rule="nonzero" transform="translate(750.865541, 565.931290) rotate(-57.570000) translate(-750.865541, -565.931290) " x="698.595541" y="560.79629" width="104.54" height="10.27"></rect>
            <rect id="Rectangle" fill="#B7B6CC" fill-rule="nonzero" transform="translate(814.924268, 553.006525) rotate(-57.570000) translate(-814.924268, -553.006525) " x="801.389268" y="539.471525" width="27.07" height="27.07"></rect>
            <path d="M805.93,814.21 C797.44,812.14 784.35,809.12 777.69,808.45 C767.34,807.45 767.34,794.45 774.59,796.03 C778.51,796.88 781.99,794.67 784.34,792.48 C785.053409,791.794101 785.721483,791.062559 786.34,790.29 C787.195065,789.250195 788.374974,788.528161 789.69,788.24 C793.57,787.4 801.69,786.12 806.6,788.79 C807.747947,789.5034 808.675636,790.521089 809.28,791.73 C811.51,795.73 812.67,802.38 813.28,807.73 C813.488407,809.66683 812.743556,811.584288 811.282343,812.872541 C809.821129,814.160795 807.825444,814.659482 805.93,814.21 L805.93,814.21 Z" id="Path" fill="#BEBED0" fill-rule="nonzero"></path>
            <path d="M675.06,819.38 C666.58,817.31 653.49,814.29 646.83,813.62 C636.48,812.62 636.48,799.62 643.72,801.21 C648.46,802.21 652.54,798.8 654.79,796.32 C655.07,796.02 655.32,795.73 655.53,795.46 C656.390098,794.440638 657.565321,793.736912 658.87,793.46 C662.75,792.61 670.87,791.33 675.79,794.01 C677.25,794.79 678.41,796.51 679.34,798.74 C681.01,802.74 681.93,808.34 682.44,812.97 C682.626809,814.901824 681.867637,816.80469 680.402346,818.077389 C678.937055,819.350088 676.94665,819.835403 675.06,819.38 Z" id="Path" fill="#BEBED0" fill-rule="nonzero"></path>
            <path d="M679.34,798.7 C666.99,811.43 656.4,798.46 654.79,796.32 C655.07,796.02 655.32,795.73 655.53,795.46 C656.390098,794.440638 657.565321,793.736912 658.87,793.46 C662.75,792.61 670.87,791.33 675.79,794.01 C677.25,794.75 678.46,796.47 679.34,798.7 Z" id="Path" fill="#000000" fill-rule="nonzero" opacity="0.1"></path>
            <path d="M809.33,791.73 C803.98,795.38 785.97,794.48 785.97,794.48 C785.376497,793.855843 784.831576,793.187228 784.34,792.48 C785.053409,791.794101 785.721483,791.062559 786.34,790.29 C787.195065,789.250195 788.374974,788.528161 789.69,788.24 C793.57,787.4 801.69,786.12 806.6,788.79 C807.766387,789.496209 808.712006,790.514568 809.33,791.73 Z" id="Path" fill="#000000" fill-rule="nonzero" opacity="0.1"></path>
            <path d="M810.28,789.31 C806.65,793.97 785.97,792.93 785.97,792.93 C785.97,792.93 779.76,786.72 777.17,773.28 C774.58,759.84 752.34,716.9 752.34,716.9 C747.17,710.17 743.03,697.76 743.03,697.76 L734.24,641.38 C734.24,641.38 691.83,697.24 692.35,709.14 C692.87,721.04 683.03,768.14 683.03,768.14 C679.41,774.35 679.41,797.14 679.41,797.14 C665.97,811.14 654.59,794.55 654.59,794.55 C652,783.69 656.14,748 656.14,748 C656.14,748 662.35,718 662.86,699.38 C663.37,680.76 669.59,676.11 669.59,676.11 C674.420555,656.917467 682.646899,638.744325 693.88,622.45 C697,617.98 699.07,615.59 699.07,615.59 L782.86,625.42 C781.253259,628.975505 780.045876,632.698269 779.26,636.52 C773.81,659.92 772,701.97 772,701.97 C791.14,714.38 796.83,747.97 796.83,747.97 C796.83,756.72 810.28,789.31 810.28,789.31 Z" id="Path" fill="#5C5C8E" fill-rule="nonzero"></path>
            <g id="Group" opacity="0.05" transform="translate(665.000000, 615.000000)" fill="#000000" fill-rule="nonzero">
                <path d="M64.63,33.27 L63.55,26.38 C63.55,26.38 21.14,82.24 21.66,94.14 C22.18,106.04 12.35,153.14 12.35,153.14 C8.72,159.35 8.72,182.14 8.72,182.14 C6.55435328,184.583887 3.75420129,186.380276 0.63,187.33 C4.7,188.4 9.63,187.61 14.93,182.14 C14.93,182.14 14.93,159.38 18.55,153.14 C18.55,153.14 28.38,106.07 27.86,94.14 C27.46,84.83 53.35,48.57 64.63,33.27 Z" id="Path"></path>
                <path d="M132.34,132.93 C132.34,132.93 126.65,99.31 107.52,86.93 C107.52,86.93 109.33,44.88 114.77,21.48 C115.558689,17.6577639 116.769444,13.9349442 118.38,10.38 L34.59,0.57 C34.59,0.57 34.39,0.79 34.03,1.23 L112.17,10.4 C110.563259,13.9555047 109.355876,17.6782689 108.57,21.5 C103.12,44.9 101.31,86.95 101.31,86.95 C120.45,99.36 126.14,132.95 126.14,132.95 C126.14,141.74 139.59,174.33 139.59,174.33 C137.45,177.07 129.39,177.84 123.12,178.01 C128.12,178.14 142.79,178.19 145.79,174.33 C145.79,174.31 132.34,141.72 132.34,132.93 Z" id="Path"></path>
            </g>
            <path d="M683.55,608.28 C682.923769,609.807548 682.100092,611.246461 681.1,612.56 C677.99,616.75 671.52,622.29 659.68,620.77 C657.905598,620.542592 656.380833,619.400389 655.663802,617.761462 C654.946772,616.122534 655.142748,614.227506 656.18,612.77 C659.981122,607.225991 665.437866,603.025803 671.77,600.77 C673.912432,600.062916 676.131342,599.613092 678.38,599.43 L683.55,608.28 Z" id="Path" fill="#AE6E79" fill-rule="nonzero"></path>
            <path d="M792.79,463.62 L751.31,448.45 C751.31,448.45 739.41,454.66 744.07,463.45 L784.46,488.8 L792.79,463.62 Z" id="Path" fill="#42383C" fill-rule="nonzero"></path>
            <path d="M792.95,463.79 L751.46,448.62 C751.46,448.62 739.56,454.82 744.22,463.62 L784.56,488.96 L792.95,463.79 Z" id="Path" fill="#000000" fill-rule="nonzero" opacity="0.1"></path>
            <path d="M794.24,438.62 C794.24,438.62 793.72,462.93 804.59,471.21 C815.46,479.49 773.03,484.14 773.03,484.14 C773.03,484.14 779.76,459.31 773.03,446.38 C766.3,433.45 794.24,438.62 794.24,438.62 Z" id="Path" fill="#AE6E79" fill-rule="nonzero"></path>
            <path d="M782.86,625.35 C781.253259,628.905505 780.045876,632.628269 779.26,636.45 C729.26,644.09 694.41,623.28 694.41,623.28 C694.22,622.98 694.04,622.68 693.88,622.38 C697,617.91 699.07,615.52 699.07,615.52 L782.86,625.35 Z" id="Path" fill="#000000" fill-rule="nonzero" opacity="0.1"></path>
            <path d="M683.55,608.28 C682.923769,609.807548 682.100092,611.246461 681.1,612.56 C676.31,611.76 672.48,602.56 671.77,600.82 C673.912432,600.112916 676.131342,599.663092 678.38,599.48 L683.55,608.28 Z" id="Path" fill="#000000" fill-rule="nonzero" opacity="0.1"></path>
            <path d="M798.38,460.35 L779.76,467.07 L772,477.42 C772,477.42 756,482.59 753.9,482.59 C751.8,482.59 746.14,484.66 742.52,492.93 C738.9,501.2 725.97,541.57 714.59,548.28 C703.21,554.99 673.21,600 673.21,600 C673.21,600 678.38,614 684.59,611.9 L699.07,600 C699.07,600 687.69,611.38 694.41,621.73 C694.41,621.73 736.83,647.07 795.28,631.55 L795.79,616.04 L798.38,628.45 L827.38,610.35 C827.38,610.35 824.79,576.96 820.12,559.97 C818.18559,552.82544 818.895797,545.222672 822.12,538.56 C829.63,522.91 841.22,496.77 839.81,487.24 C838.14,476.01 831.81,471.13 829.37,469.66 C828.816755,469.322754 828.194735,469.114275 827.55,469.05 L818.08,468.11 L798.38,460.35 Z" id="Path" fill="#42383C" fill-rule="nonzero"></path>
            <path d="M766.57,512.33 C766.57,512.33 756.22,560.43 744.84,568.19 C733.46,575.95 702.95,600.78 701.91,604.92" id="Path" fill="#000000" fill-rule="nonzero" opacity="0.05"></path>
            <path d="M761.91,510.78 C761.91,510.78 751.57,558.88 740.19,566.64 C728.81,574.4 698.29,599.23 697.26,603.36" id="Path" fill="#42383C" fill-rule="nonzero"></path>
            <path d="M771.74,477.16 C771.74,477.16 807.43,465.26 817.74,468.36" id="Path" fill="#000000" fill-rule="nonzero" opacity="0.1"></path>
            <g id="Group" opacity="0.05" transform="translate(796.000000, 460.000000)" fill="#000000" fill-rule="nonzero">
                <path d="M26.07,78.57 C33.58,62.92 45.17,36.78 43.76,27.25 C42.09,16.02 35.76,11.14 33.32,9.67 C32.766755,9.33275404 32.1447353,9.12427493 31.5,9.06 L27.5,8.66 C27.9239796,8.75700674 28.3293,8.92251256 28.7,9.15 C31.12,10.63 37.47,15.5 39.13,26.74 C40.54,36.26 28.95,62.41 21.45,78.06 C18.2264928,84.7193054 17.5162681,92.3187097 19.45,99.46 C24.13,116.46 26.72,149.84 26.72,149.84 L1.78,165.43 L2.41,168.43 L31.41,150.33 C31.41,150.33 28.82,116.94 24.15,99.95 C22.1982377,92.82432 22.8798825,85.2339209 26.07,78.57 L26.07,78.57 Z" id="Path"></path>
                <polygon id="Path" points="17.38 7.59 21.86 8.04 2.38 0.35 0.63 0.98"></polygon>
            </g>
            <path d="M761.91,560.95 C761.91,560.95 777.91,552.16 783.12,554.23 C788.33,556.3 807.43,553.71 807.43,553.71" id="Path" fill="#000000" fill-rule="nonzero" opacity="0.05"></path>
            <path d="M792.46,445.09 C791.87,439.9 794.27,440.69 794.27,440.69 C794.27,440.69 766.34,435.52 773.06,448.45 C774.754469,452.013029 775.720032,455.878679 775.9,459.820009 L776.17,459.820009 C783.93,459.83 788.46,451.15 792.46,445.09 Z" id="Path" fill="#000000" fill-rule="nonzero" opacity="0.05"></path>
            <circle id="Oval" fill="#AE6E79" fill-rule="nonzero" cx="776.14" cy="435.52" r="22.24"></circle>
            <path d="M800.46,442.1 C802.46,437.67 803.95,432.87 803.71,428.01 C803.47,423.15 801.29,418.22 797.25,415.5 C795.17,414.1 792.71,413.35 790.54,412.07 C788.85,411.07 787.36,409.76 785.75,408.64 C777.731769,403.174982 767.404094,402.412229 758.67,406.64 C754.59,408.64 751.11,411.75 747.26,414.2 C743.41,416.65 738.87,418.53 734.36,417.81 C733.58,419.96 735.49,422.08 737.24,423.56 C740.57,426.35 744.34,429.13 748.68,429.22 C750.36,429.22 752.13,428.9 753.68,429.6 C754.706984,430.167029 755.579149,430.977387 756.22,431.96 C758.308304,434.737065 760.079322,437.739074 761.5,440.91 C761.934661,442.273291 762.75424,443.481822 763.86,444.39 C765.86,445.67 768.45,444.6 770.86,444.51 C774.54,444.36 777.86,446.68 780.58,449.16 C783.3,451.64 785.9,454.48 789.34,455.79 C791.91,456.79 797.05,456.73 798.34,453.66 C798.83,452.5 797.88,450.02 798.08,448.6 C798.561457,446.331542 799.362799,444.143001 800.46,442.1 Z" id="Path" fill="#000000" fill-rule="nonzero" opacity="0.1"></path>
            <path d="M800.92,441.57 C802.92,437.14 804.42,432.34 804.17,427.49 C803.92,422.64 801.76,417.69 797.72,414.98 C795.63,413.57 793.17,412.82 791.01,411.54 C789.32,410.54 787.83,409.24 786.22,408.11 C778.201769,402.644982 767.874094,401.882229 759.14,406.11 C755.06,408.11 751.58,411.21 747.73,413.66 C743.88,416.11 739.34,418 734.83,417.27 C734.05,419.43 735.95,421.55 737.71,423.02 C741.04,425.81 744.81,428.59 749.15,428.69 C750.83,428.69 752.6,428.36 754.15,429.07 C755.181174,429.631222 756.054633,430.442782 756.69,431.43 C758.778266,434.201672 760.54618,437.200752 761.96,440.37 C762.398445,441.734001 763.221404,442.942395 764.33,443.85 C766.33,445.13 768.92,444.06 771.33,443.97 C775.01,443.83 778.33,446.15 781.04,448.63 C783.75,451.11 786.36,453.94 789.81,455.25 C792.38,456.25 797.52,456.19 798.81,453.12 C799.31,451.96 798.36,449.48 798.56,448.06 C799.035785,445.795945 799.830369,443.610839 800.92,441.57 Z" id="Path" fill="#42383C" fill-rule="nonzero"></path>
            <path d="M639.92,770 C638.055081,771.53052 635.712482,772.358569 633.3,772.340306 L186.53,770.44 C184.106522,767.522742 182.995603,763.734037 183.46,759.97 L227.6,398.8 L255.28,398.5 C260.040696,398.452161 264.233112,401.625244 265.48,406.22 L270.65,425.3 C271.909654,429.94604 276.177541,433.132509 280.99,433.02 L391.46,430.37 C397.139037,430.234229 401.671623,425.590659 401.67,419.91 L401.67,407.27 C401.669623,401.539642 406.280019,396.87574 412.01,396.81 L565.09,395.159543 C570.143821,395.113083 574.508358,398.686364 575.46,403.65 L643.16,757.65 L643.6,759.93 C644.331358,763.709031 642.915656,767.582976 639.92,770 L639.92,770 Z" id="Path" fill="#000000" fill-rule="nonzero" opacity="0.1"></path>
            <path d="M560.09,400.169462 L407.01,401.82 C401.28,401.880259 396.665161,406.539685 396.66,412.27 L396.66,424.92 C396.656329,430.592981 392.13123,435.22899 386.46,435.37 L276,438.02 C271.182691,438.140821 266.907374,434.951889 265.65,430.3 L260.46,411.23 C259.215267,406.629522 255.015566,403.454039 250.25,403.51 L102.7,405.1 C99.6404628,405.129965 96.747757,406.499296 94.7852126,408.846653 C92.8226682,411.19401 91.987466,414.283549 92.5,417.3 L151.86,766.66 C152.710791,771.673882 157.044488,775.349296 162.13,775.37 L628.27,777.37006 C631.393616,777.380537 634.358483,775.994523 636.353613,773.591079 C638.348743,771.187634 639.165326,768.018303 638.58,764.95 L570.46,408.66 C569.512048,403.694168 565.145246,400.119032 560.09,400.169462 L560.09,400.169462 Z" id="Path" fill="#E6E8EE" fill-rule="nonzero"></path>
            <path d="M775.68,160.93 L774.88,169.83 L775.46,185.57 L773.77,212.12 C773.77,212.12 773.53,223.75 766.96,229.2 L750.19,254.95 L750.09,255 L743.78,258.08 L734.15,259.08 L729.15,246.97 L732.46,233.67 L734.3,231.19 L734.81,230.63 C736.81,228.43 744.53,220.44 750.66,217.95 C750.66,217.95 754.75,214.95 754.03,210.25 C753.31,205.55 759.55,180.57 759.55,180.57 C759.55,180.57 763.55,164.05 762.68,162.44 C761.81,160.83 762.52,124.26 776.32,123.7 C790.12,123.14 775.68,160.93 775.68,160.93 Z" id="Path" fill="#F6BAC2" fill-rule="nonzero"></path>
            <path d="M338.2,588.64 L336.92,587.36 C336.643393,587.100977 336.486429,586.738952 336.486429,586.36 C336.486429,585.981048 336.643393,585.619023 336.92,585.36 L348.15,574.12 C348.409023,573.843393 348.771048,573.686429 349.15,573.686429 C349.528952,573.686429 349.890977,573.843393 350.15,574.12 L361.38,585.35 C361.651312,585.611939 361.804547,585.972876 361.804547,586.35 C361.804547,586.727124 361.651312,587.088061 361.38,587.35 L360.1,588.63 C359.838061,588.901312 359.477124,589.054547 359.1,589.054547 C358.722876,589.054547 358.361939,588.901312 358.1,588.63 L351.46,581.63 L351.46,598.24 C351.462665,598.607728 351.31845,598.961311 351.05936,599.222278 C350.80027,599.483245 350.447738,599.63 350.08,599.63 L348.23,599.63 C347.462324,599.63 346.84,599.007676 346.84,598.24 L346.84,581.65 L340.2,588.65 C339.936707,588.920007 339.575002,589.07144 339.197877,589.069554 C338.820752,589.067669 338.46058,588.912626 338.2,588.64 L338.2,588.64 Z" id="Path" fill="#F6F7F9" fill-rule="nonzero"></path>
            <path d="M349.13,563.91 C361.716569,563.91 371.92,574.113431 371.92,586.7 C371.92,599.286569 361.716569,609.49 349.13,609.49 C336.543431,609.49 326.34,599.286569 326.34,586.7 C326.351027,574.118001 336.548001,563.921027 349.13,563.91 M349.13,560.91 C334.886576,560.91 323.34,572.456576 323.34,586.7 C323.34,600.943424 334.886576,612.49 349.13,612.49 C363.373424,612.49 374.92,600.943424 374.92,586.7 C374.92,572.456576 363.373424,560.91 349.13,560.91 L349.13,560.91 Z" id="Shape" fill="#F6F7F9" fill-rule="nonzero"></path>
        </g>
    </g>
</svg>